<svg xmlns="http://www.w3.org/2000/svg" version="1.1">
<polyline points="1,263 1,265 2,266 2,268 0,270 7,270 8,269 9,269 10,268 11,268 12,269 12,270 14,272 16,272 18,270 16,272 15,272 12,269 12,268 9,268 7,270 3,270 2,269 2,265 1,264" fill="none" stroke="black" stroke-width="5"/>
<polyline points="14,239 14,242 15,243 16,242 17,242 17,239" fill="none" stroke="black" stroke-width="5"/>
<polyline points="14,240 15,239 16,239 17,240 17,241 16,242 15,242 14,241" fill="none" stroke="black" stroke-width="5"/>
<polyline points="179,186 178,187 176,187 177,188 177,189 179,189 180,190 182,190 180,190 179,189 178,189 177,188 179,186 180,187 182,187 180,187" fill="none" stroke="black" stroke-width="5"/>
<polyline points="3,169 2,170 3,171 3,175 5,175 4,175 3,174 3,170 4,169 5,170 5,172 6,173 5,172 5,169" fill="none" stroke="black" stroke-width="5"/>
<polyline points="44,156 43,157 43,160 44,160 45,161 45,165 46,164 47,164 47,161 45,161 43,159 43,157" fill="none" stroke="black" stroke-width="5"/>
<polyline points="45,162 46,161 47,162 47,163 46,164 45,163" fill="none" stroke="black" stroke-width="5"/>
<polyline points="42,145 42,148 41,149 42,148 43,148 44,149 43,150 43,151 43,150 45,148 49,148 50,149 51,149 53,151 53,155 54,156 53,157 53,164 51,166 50,166 48,168 42,168 42,258 43,258 44,259 52,259 53,258 55,258 56,257 57,258 70,258 71,257 72,258 73,257 74,258 85,258 86,257 87,258 88,257 89,258 100,258 101,257 102,258 103,257 104,258 115,258 116,257 117,258 130,258 131,257 131,146 130,145 120,145 119,146 118,146 117,145 116,146 115,145 105,145 104,146 103,146 102,145 101,146 100,145 89,145 88,146 87,145 86,145 85,146 84,145 74,145 73,146 73,257 72,258 71,257 70,257 69,258 59,258 58,257 58,175 57,174 58,173 58,172 57,171 58,170 57,169 57,166 58,165 58,147 60,145 69,145 70,146 70,245 71,246 70,247 70,248 71,249 70,250 71,251 71,255 71,251 70,250 71,249 70,248 70,247 71,246 70,245 70,147 71,146 70,146 69,145 60,145 59,146 58,146 57,147 58,148 58,165 57,166 57,169 58,170 57,171 58,172 58,173 57,174 58,175 58,257 57,258 55,256 55,167 53,165 53,159 55,157 56,157 55,157 53,155 55,153 54,153 53,152 53,150 52,149 51,149 50,148 43,148 42,147 42,146 43,145 53,145 55,147 55,149 55,146 56,145 55,146 54,146 53,145" fill="none" stroke="black" stroke-width="5"/>
<polyline points="52,166 53,165 54,166 54,167 55,168 55,257 54,258 53,258 52,259 44,259 42,257 42,169 43,168 48,168 49,167 50,167 51,166" fill="none" stroke="black" stroke-width="5"/>
<polyline points="120,145 129,145 131,147 131,256 129,258 119,258 118,257 118,210 119,209 119,206 118,205 118,202 119,201 118,200 118,197 119,196 119,192 118,191 118,172 119,171 119,170 118,169 119,168 119,165 118,164 118,160 119,159 118,158 118,147" fill="none" stroke="black" stroke-width="5"/>
<polyline points="116,146 117,145 118,146 118,158 119,159 118,160 118,164 119,165 119,168 118,169 119,170 119,171 118,172 118,191 119,192 119,196 118,197 118,200 119,201 118,202 118,205 119,206 119,209 118,210 118,257 117,258 115,256 116,255 115,254 115,235 116,234 115,233 115,209 116,208 116,207 115,206 115,198 116,197 116,193 115,192 115,191 116,190 116,189 115,188 115,183 116,182 116,180 115,179 115,172 116,171" fill="none" stroke="black" stroke-width="5"/>
<polyline points="105,145 114,145 116,147 116,171 115,172 115,179 116,180 116,182 115,183 115,188 116,189 116,190 115,191 115,192 116,193 116,197 115,198 115,206 116,207 116,208 115,209 115,233 116,234 115,235 115,254 116,255 115,256 115,257 114,258 105,258 104,257 104,225 103,224 104,223 104,148 103,147" fill="none" stroke="black" stroke-width="5"/>
<polyline points="101,146 102,145 103,146 103,147 104,148 104,223 103,224 104,225 104,256 102,258 101,257" fill="none" stroke="black" stroke-width="5"/>
<polyline points="73,146 74,145 84,145 85,146 86,145 87,145 88,146 89,145 99,145 101,147 101,163 100,164 99,164 100,164 101,165 101,175 100,176 101,177 101,256 99,258 90,258 89,257 89,249 88,248 88,211 89,210 89,205 88,204 88,203 89,202 89,201 88,200 88,197 89,196 89,194 88,193 88,148 88,193 89,194 89,196 88,197 88,200 89,201 89,202 88,203 88,204 89,205 89,210 88,211 88,248 89,249 89,256 87,258 86,257 86,220 85,219 85,209 86,208 86,207 85,206 86,205 85,204 85,148 85,204 86,205 85,206 86,207 86,208 85,209 85,219 86,220 86,256 84,258 75,258 73,256" fill="none" stroke="black" stroke-width="5"/>
<polyline points="5,137 5,139 4,140 4,146 6,146 6,145 8,143 8,142 7,143 7,144 5,146 4,145 4,140 5,139 5,138 6,137" fill="none" stroke="black" stroke-width="5"/>
<polyline points="0,137 1,138 1,140 2,141 2,143 1,144 1,145 0,146 1,145 2,145 1,144 2,143 2,141 1,140 1,137" fill="none" stroke="black" stroke-width="5"/>
<polyline points="6,121 8,123 8,133 7,134 7,135 8,136 8,137 9,138 9,140 10,141 10,142 11,143 9,145 9,147 8,148 8,160 7,161 6,161 7,161 8,162 8,177 7,178 7,179 6,180 7,180 7,178 8,177 8,148 9,147 9,146 11,144 11,142 9,140 9,138 8,137 8,136 7,135 7,134 8,133 8,121" fill="none" stroke="black" stroke-width="5"/>
<polyline points="0,116 3,116" fill="none" stroke="black" stroke-width="5"/>
<polyline points="3,92 1,94 0,94 4,94 6,96 6,99 5,100 5,101 4,102 3,102 2,101 0,101 2,101 3,102 4,102 5,101 5,100 6,99 6,96 5,95 5,94 4,94 3,93" fill="none" stroke="black" stroke-width="5"/>
<polyline points="167,81 167,84 166,85 166,90 168,92 170,92 171,93 182,93 171,93 170,92 169,92 166,89 166,86 167,85" fill="none" stroke="black" stroke-width="5"/>
<polyline points="171,75 170,76 167,76 166,77 166,78 168,76 170,76 171,75 174,75 175,76 182,76 175,76 174,75" fill="none" stroke="black" stroke-width="5"/>
<polyline points="6,72 5,73 0,73 5,73 6,72 7,72 9,74 7,76 0,76 5,76 6,77 7,76 8,77 8,86 8,76 10,74 11,74 9,74 8,73 9,72" fill="none" stroke="black" stroke-width="5"/>
<polyline points="170,67 171,68 171,70 173,72 175,72 176,73 182,73 176,73 175,72 174,72 171,69 171,68" fill="none" stroke="black" stroke-width="5"/>
<polyline points="168,66 168,72 167,73 166,73 165,74 164,73 164,74 166,74 167,73 168,73" fill="none" stroke="black" stroke-width="5"/>
<polyline points="12,65 11,66 8,66 7,67 6,67 5,66 1,66 0,67 1,66 5,66 6,67 7,67 8,66 12,66" fill="none" stroke="black" stroke-width="5"/>
<polyline points="0,50 1,51 2,51 3,52 4,52 8,56 8,58 6,60 0,60 7,60 8,59 8,55 6,53 5,53 3,51 1,51" fill="none" stroke="black" stroke-width="5"/>
<polyline points="4,39 2,41 2,44 1,45 2,46 1,47 1,48 3,48 4,49 8,49 9,50 10,50 11,49 13,49 13,47 13,48 12,49 11,49 10,50 9,50 8,49 4,49 3,48 2,48 1,47 2,46 1,45 2,44 2,42 4,40" fill="none" stroke="black" stroke-width="5"/>
<polyline points="59,25 58,26 58,141 116,141 117,142 118,141 127,141 128,142 129,141 131,141 131,126 132,125 132,27 131,26 129,26 128,25 121,25 120,26 119,26 118,25 117,26 116,26 115,25 106,25 105,26 104,26 103,25 102,26 101,26 100,25 90,25 89,26 86,26 85,25 75,25 74,26 73,26 72,25 71,26 70,26 69,25" fill="none" stroke="black" stroke-width="5"/>
<polyline points="121,25 128,25 129,26 130,26 132,28 132,125 131,126 131,140 130,141 129,141 128,142 127,141 119,141 118,140 119,139 119,27" fill="none" stroke="black" stroke-width="5"/>
<polyline points="117,26 118,25 119,26 119,139 118,140 118,141 117,142 116,141 116,49 117,48 116,47 116,38 117,37 117,35 116,34 116,29 117,28" fill="none" stroke="black" stroke-width="5"/>
<polyline points="106,25 115,25 117,27 117,28 116,29 116,34 117,35 117,37 116,38 116,47 117,48 116,49 116,108 115,109 116,110 115,111 116,112 116,140 115,141 104,141 103,140 104,139 104,27" fill="none" stroke="black" stroke-width="5"/>
<polyline points="89,26 90,25 100,25 101,26 102,26 103,25 104,26 104,139 102,141 101,140 101,28 101,140 100,141 89,141 88,140 88,98 89,97" fill="none" stroke="black" stroke-width="5"/>
<polyline points="71,26 72,25 73,26 73,27 74,28 73,29 73,139 73,29 74,28 73,27 75,25 85,25 86,26 88,26 89,27 89,97 88,98 88,140 87,141 86,141 85,140 85,119 86,118 86,114 85,113 85,112 86,111 86,107 85,106 85,102 86,101 86,28 86,101 85,102 85,106 86,107 86,111 85,112 85,113 86,114 86,118 85,119 85,140 84,141 71,141 70,140 70,41 71,40 70,39 70,28 71,27" fill="none" stroke="black" stroke-width="5"/>
<polyline points="58,26 59,25 69,25 71,27 70,28 70,39 71,40 70,41 70,140 69,141 59,141 58,140" fill="none" stroke="black" stroke-width="5"/>
<polyline points="42,25 42,141 43,141 44,142 45,141 46,142 47,142 48,141 49,142 54,142 55,141 56,141 55,140 55,26 54,25" fill="none" stroke="black" stroke-width="5"/>
<polyline points="42,26 43,25 53,25 55,27 55,141 54,142 49,142 48,141 47,142 46,142 45,141 44,142 42,140" fill="none" stroke="black" stroke-width="5"/>
<polyline points="37,23 37,89 38,90 38,121 37,122 37,124 38,125 38,126 37,127 37,137 36,138 35,138 35,140 34,141 34,174 35,175 35,176 37,178 37,179 38,180 38,231 37,232 37,235 38,236 37,237 37,238 38,239 38,241 37,242 37,244 38,245 37,246 37,262 38,263 38,265 38,263 37,262 37,246 38,245 37,244 37,242 38,241 38,239 37,238 37,237 38,236 37,235 37,232 38,231 38,180 37,179 37,177 34,174 34,141 35,140 35,139 36,138 37,138 37,127 38,126 38,125 37,124 37,122 38,121 38,90 37,89" fill="none" stroke="black" stroke-width="5"/>
<polyline points="10,23 9,24 0,24 9,24 10,23 11,23 12,24 12,29 8,33 0,33 8,33 9,32 10,32 11,31 11,30 12,29 12,25 13,24 12,24 11,23" fill="none" stroke="black" stroke-width="5"/>
<polyline points="40,20 39,21 37,21 39,21 40,20 42,20 43,21 50,21 51,20 56,20 57,21 58,20 59,20 60,21 135,21 136,22 136,23 137,24 137,36 141,36 142,37 142,39 143,40 143,43 142,44 142,45 141,46 140,45 140,44 139,43 139,41 137,41 137,42 136,43 136,244 138,244 139,245 140,245 141,246 141,249 142,250 142,252 140,254 138,252 138,249 136,249 136,250 135,251 135,263 134,264 132,264 131,263 43,263 42,264 41,264 40,265 41,264 42,264 43,263 131,263 132,264 135,264 135,251 137,249 138,250 138,253 139,254 141,254 141,253 142,252 142,250 141,249 141,245 139,245 138,244 137,244 136,243 136,43 138,41 139,42 139,43 140,44 140,45 141,46 142,46 142,44 143,43 143,40 142,39 142,36 138,36 137,35 137,24 136,23 136,21 60,21 59,20 58,20 57,21 56,20 51,20 50,21 43,21 42,20" fill="none" stroke="black" stroke-width="5"/>
<polyline points="15,12 15,18 13,20 2,20 1,19 1,20 14,20 14,19 15,18" fill="none" stroke="black" stroke-width="5"/>
<polyline points="18,11 18,19 17,20 17,22 16,23 16,31 15,32 15,34 16,35 16,36 17,36 15,34 15,32 16,31 16,24 17,23 17,21 18,20" fill="none" stroke="black" stroke-width="5"/>
<polyline points="12,8 11,9 8,9 7,10 3,10 2,11 2,14 5,17 5,18 5,16 2,13 2,12 4,10 8,10 9,9 11,9" fill="none" stroke="black" stroke-width="5"/>
<polyline points="5,1 4,2 2,2 1,3 0,3 1,3 2,2 5,2 6,1 9,1 11,3 11,4 9,6 8,6 7,7 1,7 0,8 1,7 7,7 8,6 10,6 11,5 11,2 10,2 9,1" fill="none" stroke="black" stroke-width="5"/>
</svg>