<svg xmlns="http://www.w3.org/2000/svg" version="1.1">
<polyline points="218,409 217,410 216,410 216,413 217,414 217,439 216,440 216,446 215,447 215,451 214,452 214,460 213,461 213,482 212,483 212,486 211,487 211,516 210,517 210,522 214,522 215,523 216,523 217,522 219,522 220,521 221,521 222,520 223,520 223,515 224,514 224,513 225,512 225,511 226,510 226,502 227,501 227,500 228,499 228,496 229,495 229,492 230,491 230,487 231,486 231,430 230,429 230,416 229,415 229,412 227,410 223,410 222,409" fill="none" stroke="green" stroke-width="2"/>
<polyline points="218,409 222,409 223,410 226,410 229,413 229,415 230,416 230,429 231,430 231,485 230,486 230,491 229,492 229,495 228,496 228,498 227,499 227,501 226,502 226,510 224,512 224,513 223,514 223,519 222,520 221,520 220,521 219,521 218,522 217,522 216,523 215,523 214,522 211,522 210,521 210,517 211,516 211,487 212,486 212,483 213,482 213,461 214,460 214,452 215,451 215,447 216,446 216,440 217,439 217,413 216,412 216,411" fill="none" stroke="green" stroke-width="2"/>
<polyline points="220,413 220,441 219,442 219,447 218,448 218,452 217,453 217,476 216,477 216,483 215,484 215,488 214,489 214,519 218,519 220,517 220,513 222,511 222,509 223,508 223,500 224,499 224,498 225,497 225,495 226,494 226,488 227,487 227,486 228,485 228,431 227,430 227,427 226,426 226,414 225,413" fill="none" stroke="green" stroke-width="2"/>
<polyline points="220,414 221,413 224,413 226,415 226,426 227,427 227,430 228,431 228,484 227,485 227,487 226,488 226,494 225,495 225,496 224,497 224,499 223,500 223,508 222,509 222,510 220,512 220,516 217,519 215,519 214,518 214,489 215,488 215,484 216,483 216,477 217,476 217,453 218,452 218,448 219,447 219,442 220,441" fill="none" stroke="green" stroke-width="2"/>
<polyline points="352,88 351,89 326,89 325,90 321,90 320,91 317,91 316,92 315,92 315,93 314,94 314,115 313,116 313,118 312,119 312,125 311,126 311,134 310,135 310,139 309,140 309,145 308,146 308,153 307,154 307,155 306,156 306,158 305,159 305,162 306,162 307,163 309,163 310,164 321,164 322,165 325,165 326,166 340,166 341,167 371,167 372,168 375,168 376,167 379,167 380,166 380,163 381,162 381,141 382,140 382,132 383,131 383,123 384,122 384,119 385,118 385,117 386,116 386,115 387,114 387,111 388,110 388,103 389,102 389,100 390,99 390,95 391,94 391,89 390,88" fill="none" stroke="green" stroke-width="2"/>
<polyline points="351,89 352,88 389,88 391,90 391,94 390,95 390,99 389,100 389,102 388,103 388,110 387,111 387,113 386,114 386,115 385,116 385,118 384,119 384,122 383,123 383,131 382,132 382,140 381,141 381,162 380,163 380,165 378,167 376,167 375,168 372,168 371,167 341,167 340,166 326,166 325,165 322,165 321,164 310,164 309,163 308,163 307,162 306,162 305,161 305,159 306,158 306,157 307,156 307,154 308,153 308,146 309,145 309,140 310,139 310,135 311,134 311,126 312,125 312,119 313,118 313,116 314,115 314,94 317,91 320,91 321,90 325,90 326,89" fill="none" stroke="green" stroke-width="2"/>
<polyline points="338,125 337,126 337,127 334,130 334,131 331,134 331,135 329,137 329,138 322,145 321,145 315,151 315,153 312,156 311,156 311,157 310,158 310,160 315,160 316,161 322,161 323,162 327,162 328,163 343,163 344,164 364,164 365,163 364,162 364,161 362,159 362,158 361,157 361,156 348,143 348,141 347,140 347,138 346,137 346,135 345,134 345,132 343,130 343,129 341,127 341,126 340,125" fill="none" stroke="green" stroke-width="2"/>
<polyline points="339,125 341,127 341,128 343,130 343,131 345,133 345,134 346,135 346,137 347,138 347,140 348,141 348,143 349,144 349,145 361,157 361,158 362,159 362,160 365,163 364,164 344,164 343,163 328,163 327,162 323,162 322,161 316,161 315,160 311,160 310,159 311,158 311,157 312,156 313,156 314,155 314,154 315,153 315,152 322,145 323,145 329,139 329,138 331,136 331,135 334,132 334,131 337,128 337,127" fill="none" stroke="green" stroke-width="2"/>
<polyline points="318,101 318,102 317,103 317,117 316,118 316,120 315,121 315,126 314,127 314,137 313,138 313,140 312,141 312,146 311,147 311,151 312,151 314,149 314,148 320,142 321,142 327,136 327,135 331,131 331,130 332,129 332,128 334,126 334,125 335,124 335,123 336,122 336,117 335,116 335,115 333,113 333,112 331,110 331,109 330,108 329,108 324,103 323,103 322,102 321,102 320,101" fill="none" stroke="green" stroke-width="2"/>
<polyline points="319,101 320,102 321,102 322,103 323,103 328,108 329,108 331,110 331,111 333,113 333,114 336,117 336,121 335,122 335,123 334,124 334,125 332,127 332,128 331,129 331,130 327,134 327,135 320,142 319,142 314,147 314,148 313,149 313,150 312,151 311,150 311,147 312,146 312,141 313,140 313,138 314,137 314,127 315,126 315,121 316,120 316,118 317,117 317,103" fill="none" stroke="green" stroke-width="2"/>
<polyline points="383,92 382,93 381,93 380,94 379,94 376,97 375,97 374,98 373,98 371,100 370,100 369,101 368,101 367,102 365,102 364,103 363,103 360,106 359,106 357,108 356,108 355,109 355,110 354,111 353,111 347,117 346,117 345,118 344,118 342,120 342,124 345,127 345,128 347,130 347,131 348,132 348,133 349,134 349,136 350,137 350,139 351,140 351,142 355,146 355,147 359,151 360,151 362,153 362,154 365,157 365,158 366,159 366,160 369,163 370,163 371,164 377,164 377,161 378,160 378,138 379,137 379,130 380,129 380,122 381,121 381,118 382,117 382,116 383,115 383,114 384,113 384,105 385,104 385,101 386,100 386,98 387,97 387,92" fill="none" stroke="green" stroke-width="2"/>
<polyline points="383,92 386,92 387,93 387,97 386,98 386,100 385,101 385,104 384,105 384,112 383,113 383,114 382,115 382,117 381,118 381,121 380,122 380,129 379,130 379,137 378,138 378,160 377,161 377,163 376,164 372,164 371,163 370,163 365,158 365,156 362,153 362,152 361,151 360,151 355,146 355,145 351,141 351,140 350,139 350,137 349,136 349,134 348,133 348,131 347,130 347,129 345,127 345,126 342,123 342,121 345,118 346,118 348,116 349,116 354,111 355,111 355,110 357,108 358,108 360,106 361,106 364,103 365,103 366,102 367,102 368,101 370,101 371,100 372,100 374,98 375,98 376,97 377,97 380,94 381,94" fill="none" stroke="green" stroke-width="2"/>
<polyline points="380,91" fill="none" stroke="green" stroke-width="2"/>
<polyline points="354,91 353,92 347,92 346,93 322,93 321,94 319,94 319,95 318,96 318,97 319,97 320,98 321,98 323,100 324,100 325,101 326,101 328,103 328,104 329,104 334,109 334,110 337,113 337,114 339,116 339,118 340,117 341,117 342,116 343,116 345,114 346,114 347,113 348,113 349,112 349,111 350,110 351,110 353,108 353,107 355,105 356,105 357,104 358,104 361,101 362,101 363,100 364,100 366,98 368,98 369,97 370,97 371,96 372,96 373,95 374,95 375,94 376,94 377,93 377,91" fill="none" stroke="green" stroke-width="2"/>
<polyline points="353,92 354,91 376,91 377,92 375,94 374,94 373,95 372,95 371,96 370,96 369,97 368,97 367,98 366,98 365,99 364,99 363,100 362,100 361,101 360,101 357,104 356,104 355,105 354,105 353,106 353,107 350,110 349,110 349,111 347,113 346,113 345,114 344,114 342,116 341,116 340,117 338,115 338,114 337,113 337,112 334,109 334,108 330,104 329,104 328,103 328,102 327,101 326,101 325,100 324,100 322,98 321,98 320,97 319,97 318,96 320,94 322,94 323,93 346,93 347,92" fill="none" stroke="green" stroke-width="2"/>
<polyline points="714,0 714,599" fill="none" stroke="green" stroke-width="2"/>
<polyline points="84,0 84,599" fill="none" stroke="green" stroke-width="2"/>
</svg>