<svg xmlns="http://www.w3.org/2000/svg" version="1.1">
<polyline points="362,91 361,92 342,92 342,94 341,95 341,175 343,175 345,173 450,173 451,174 451,175 453,175 454,174 454,95 455,94 455,92 454,92 453,91 404,91 403,92 398,92 397,91 394,91 393,92 365,92 364,91" fill="none" stroke="blue" stroke-width="2"/>
<polyline points="362,92 363,91 364,91 365,92 394,92 395,91 396,91 397,92 403,92 404,91 453,91 455,93 454,94 454,173 452,175 451,174 451,173 344,173 342,175 341,174 341,95 342,94 343,94 344,95 344,96 343,97 344,98 344,132 361,132 361,131 362,130 362,97 362,130 360,132 345,132 344,131 344,98 343,97 345,95 363,95 344,95 342,93 343,92" fill="none" stroke="blue" stroke-width="2"/>
<polyline points="428,171" fill="none" stroke="blue" stroke-width="2"/>
<polyline points="344,135 344,171 344,136 345,135 360,135 362,137 362,164 363,164 364,165 364,164 365,163 365,136 366,135 393,135 394,136 394,167 396,167 397,166 397,136 398,135 424,135 425,136 425,168 423,170 346,170 424,170 425,171 424,170 425,169 425,135 397,135 397,165 395,167 394,166 394,135 365,135 365,162 363,164 362,163 362,136 363,135 362,136 361,135" fill="none" stroke="blue" stroke-width="2"/>
<polyline points="363,132" fill="none" stroke="blue" stroke-width="2"/>
<polyline points="365,95 365,132 394,132 394,95" fill="none" stroke="blue" stroke-width="2"/>
<polyline points="365,96 366,95 393,95 394,96 394,131 393,132 366,132 365,131" fill="none" stroke="blue" stroke-width="2"/>
<polyline points="405,94 404,95 397,95 397,132 425,132 425,98 426,97 427,97 428,98 428,132 450,132 451,133 451,134 450,135 428,135 428,169 429,169 430,170 450,170 451,169 451,94" fill="none" stroke="blue" stroke-width="2"/>
<polyline points="428,136 429,135 450,135 451,136 451,168 449,170 430,170 428,168" fill="none" stroke="blue" stroke-width="2"/>
<polyline points="404,95 405,94 450,94 451,95 451,131 450,132 429,132 428,131 428,97 425,97 425,131 424,132 398,132 397,131 397,96 398,95" fill="none" stroke="blue" stroke-width="2"/>
<polyline points="546,0 546,599" fill="none" stroke="blue" stroke-width="2"/>
<polyline points="252,0 252,599" fill="none" stroke="blue" stroke-width="2"/>
</svg>