<svg xmlns="http://www.w3.org/2000/svg" version="1.1">
<polyline points="394,91 393,92 342,92 342,94 341,95 341,175 343,175 345,173 450,173 451,174 451,175 453,175 454,174 454,95 455,94 455,92 454,92 453,91 404,91 403,92 398,92 397,91" fill="none" stroke="red" stroke-width="2"/>
<polyline points="394,92 395,91 396,91 397,92 403,92 404,91 453,91 455,93 454,94 454,173 452,175 451,174 451,173 344,173 342,175 341,174 341,95 342,94 343,94 344,95 344,96 343,97 344,98 344,171 344,98 343,97 345,95 393,95 394,96 394,167 396,167 397,166 397,96 398,95 404,95 405,94 450,94 451,95 451,168 449,170 346,170 450,170 451,169 451,94 405,94 404,95 397,95 397,165 395,167 394,166 394,95 344,95 342,93 343,92" fill="none" stroke="red" stroke-width="2"/>
<polyline points="546,0 546,599" fill="none" stroke="red" stroke-width="2"/>
<polyline points="252,0 252,599" fill="none" stroke="red" stroke-width="2"/>
</svg>