<svg xmlns="http://www.w3.org/2000/svg" version="1.1" width="837" height="1000">
<!-- Squelette des lignes de grille -->
<polygon points="625,144 624,145 624,247 622,249 621,249 620,250 534,250 533,249 532,249 531,248 531,247 530,246 530,147 528,145 516,145 515,146 515,247 512,250 427,250 424,247 424,246 423,245 423,157 422,156 422,147 421,146 420,146 419,145 411,145 410,146 409,146 407,148 407,223 408,224 408,228 407,229 407,248 405,250 318,250 316,248 316,188 315,187 315,186 316,185 316,180 315,179 315,148 313,146 302,146 300,148 300,174 299,175 299,178 300,179 300,248 298,250 272,250 271,251 262,251 261,250 255,250 254,251 248,251 247,250 210,250 209,249 209,248 208,247 208,195 207,194 207,149 205,147 193,147 192,148 192,149 191,150 191,153 192,154 192,249 191,250 144,250 143,251 142,251 141,252 141,264 143,266 190,266 192,268 192,328 191,329 190,329 189,328 189,326 188,326 187,325 187,319 185,317 185,314 183,312 183,311 182,310 182,309 181,308 181,307 180,306 180,305 179,304 179,303 178,302 178,301 177,300 177,299 176,298 176,297 175,296 175,295 172,292 168,292 167,293 167,297 168,298 168,299 169,300 169,301 170,302 170,303 171,304 171,305 172,306 172,307 173,308 173,310 175,312 175,314 176,315 176,317 177,318 177,319 178,320 178,322 179,323 179,325 180,326 180,329 181,330 181,333 182,334 182,337 183,338 183,342 184,343 184,347 185,348 185,380 184,381 184,385 183,386 183,391 182,392 182,395 181,396 181,399 180,400 180,403 179,404 179,406 178,407 178,409 177,410 177,412 176,413 176,414 175,415 175,416 174,417 174,418 173,419 173,420 172,421 172,423 171,424 171,425 170,426 170,427 169,428 169,429 168,430 168,432 170,434 175,434 176,433 176,432 177,431 177,430 178,429 178,428 179,427 179,426 180,425 180,424 181,423 181,422 182,421 182,420 183,419 183,418 184,417 184,416 186,414 186,411 187,410 187,409 188,408 188,405 189,404 189,401 190,400 190,393 192,391 193,392 193,510 194,511 194,518 193,519 193,525 194,526 194,528 193,529 193,577 192,578 191,578 190,577 190,575 189,574 189,572 188,571 188,570 187,569 187,565 184,562 184,560 183,559 183,558 182,557 182,556 181,555 181,554 180,553 180,552 179,551 179,550 178,549 178,548 177,547 177,546 176,545 176,544 175,543 171,543 169,545 169,547 170,548 170,550 171,551 171,552 172,553 172,554 173,555 173,556 174,557 174,558 175,559 175,561 176,562 176,563 177,564 177,565 178,566 178,568 179,569 179,570 180,571 180,574 181,575 181,577 182,578 182,581 183,582 183,585 184,586 184,590 185,591 185,596 186,597 186,603 187,604 187,623 186,624 186,630 185,631 185,638 184,639 184,642 183,643 183,646 182,647 182,651 181,652 181,654 180,655 180,658 179,659 179,660 178,661 178,663 177,664 177,665 176,666 176,667 175,668 175,669 174,670 174,671 173,672 173,673 172,674 172,675 171,676 171,677 170,678 170,680 169,681 169,683 171,685 175,685 177,683 177,682 178,681 178,680 179,679 179,678 180,677 180,676 181,675 181,674 182,673 182,672 183,671 183,670 184,669 184,668 185,667 185,665 186,664 186,663 187,662 187,659 188,658 188,656 189,655 189,652 190,651 190,648 192,646 193,647 193,705 192,706 143,706 141,708 141,722 142,723 191,723 193,725 193,831 195,833 208,833 210,831 210,820 211,819 211,816 210,815 210,726 211,725 211,724 212,723 298,723 300,725 300,831 302,833 315,833 317,831 317,792 316,791 317,790 317,785 316,784 316,773 317,772 317,761 316,760 316,731 317,730 317,725 319,723 368,723 369,724 375,724 376,723 391,723 392,724 407,724 408,725 408,726 409,727 409,831 411,833 423,833 425,831 425,725 426,724 515,724 517,726 517,825 518,826 518,832 520,834 531,834 533,832 533,725 534,724 621,724 625,728 625,801 626,802 626,810 625,811 625,816 626,817 626,826 625,827 625,830 626,831 626,833 627,834 629,834 630,835 639,835 642,832 642,827 641,826 641,726 643,724 644,724 645,725 651,725 652,724 670,724 671,725 705,725 706,724 706,723 707,722 707,712 706,711 706,708 705,707 643,707 641,705 641,690 640,689 640,678 641,677 641,669 640,668 640,664 641,663 641,642 642,641 643,641 644,642 644,645 645,646 645,649 646,650 646,652 647,653 647,656 648,657 648,659 649,660 649,662 650,663 650,665 651,666 651,667 652,668 652,669 653,670 653,672 654,673 654,674 655,675 655,676 656,677 656,678 657,679 657,680 658,681 658,682 661,685 664,685 666,683 666,679 664,677 664,676 663,675 663,674 662,673 662,672 661,671 661,670 660,669 660,668 659,667 659,665 658,664 658,662 657,661 657,660 656,659 656,657 655,656 655,654 654,653 654,651 653,650 653,647 652,646 652,644 651,643 651,640 650,639 650,635 649,634 649,629 648,628 648,621 647,620 647,606 648,605 648,597 649,596 649,592 650,591 650,587 651,586 651,582 652,581 652,579 653,578 653,575 654,574 654,572 655,571 655,568 656,567 656,565 657,564 657,563 658,562 658,560 659,559 659,558 660,557 660,555 661,554 661,553 663,551 663,549 664,548 664,547 665,546 665,543 664,542 662,542 661,541 660,541 657,544 657,545 656,546 656,547 655,548 655,549 654,550 654,552 653,553 653,554 652,555 652,556 651,557 651,558 650,559 650,561 649,562 649,564 648,565 648,567 647,568 647,570 646,571 646,574 645,575 645,578 644,579 644,582 643,583 643,587 641,589 640,588 640,394 641,393 643,395 643,398 644,399 644,402 645,403 645,406 646,407 646,409 647,410 647,412 648,413 648,415 649,416 649,418 650,419 650,421 651,422 651,423 653,425 653,427 654,428 654,429 655,430 655,431 656,432 656,433 658,435 661,435 663,433 663,429 662,428 662,427 661,426 661,425 660,424 660,423 659,422 659,421 658,420 658,418 657,417 657,416 656,415 656,413 655,412 655,410 654,409 654,407 653,406 653,404 652,403 652,400 651,399 651,396 650,395 650,391 649,390 649,387 648,386 648,380 647,379 647,369 646,368 646,353 647,352 647,348 648,347 648,341 649,340 649,338 650,337 650,333 651,332 651,328 652,327 652,325 653,324 653,322 654,321 654,319 655,318 655,315 656,314 656,312 657,311 657,310 658,309 658,307 659,306 659,305 660,304 660,303 661,302 661,300 663,298 663,297 664,296 664,293 662,291 658,291 657,292 657,293 656,294 656,295 655,296 655,297 654,298 654,299 653,300 653,301 652,302 652,304 651,305 651,306 650,307 650,309 649,310 649,312 648,313 648,314 647,315 647,318 646,319 646,321 645,322 645,325 644,326 644,329 643,330 643,333 642,334 641,334 640,333 640,289 639,288 639,268 640,267 640,266 641,265 704,265 706,263 706,262 707,261 707,252 706,251 706,250 705,249 678,249 677,250 645,250 644,249 643,249 640,246 640,245 639,244 639,146 637,144" fill="none" stroke="red" stroke-width="1" opacity="0.8"/>
<polygon points="640,636 641,635 643,637 643,639 642,640 641,640 640,639" fill="none" stroke="red" stroke-width="1" opacity="0.8"/>
<polygon points="191,581 192,580 194,582 194,583 193,584 192,584 191,583" fill="none" stroke="red" stroke-width="1" opacity="0.8"/>
<polygon points="643,370 644,369 645,369 646,370 646,371 645,372 644,372 643,371" fill="none" stroke="red" stroke-width="1" opacity="0.8"/>
<polygon points="639,336 640,335 641,335 642,336 642,339 640,341 639,340" fill="none" stroke="red" stroke-width="1" opacity="0.8"/>
<polygon points="190,332 191,331 193,333 193,335 192,336 191,336 190,335" fill="none" stroke="red" stroke-width="1" opacity="0.8"/>
<polygon points="625,146 626,145 636,145 638,147 638,245 639,246 639,247 642,250 643,250 644,251 678,251 679,250 704,250 705,251 705,252 706,253 706,260 705,261 705,262 703,264 640,264 639,265 639,266 638,267 638,289 639,290 639,334 638,335 638,341 639,342 639,349 638,350 638,353 639,354 639,364 640,364 640,353 639,352 639,351 640,350 640,343 643,340 643,335 644,334 644,331 645,330 645,327 646,326 646,323 647,322 647,320 648,319 648,316 649,315 649,314 650,313 650,311 651,310 651,308 652,307 652,306 653,305 653,303 654,302 654,301 655,300 655,299 656,298 656,297 657,296 657,295 658,294 658,293 659,292 661,292 663,294 663,295 662,296 662,297 660,299 660,301 659,302 659,303 658,304 658,305 657,306 657,308 656,309 656,310 655,311 655,313 654,314 654,317 653,318 653,320 652,321 652,323 651,324 651,326 650,327 650,331 649,332 649,336 648,337 648,339 647,340 647,346 646,347 646,351 645,352 645,367 644,368 643,368 642,369 642,372 643,373 645,373 646,374 646,380 647,381 647,387 648,388 648,391 649,392 649,396 650,397 650,400 651,401 651,404 652,405 652,407 653,408 653,410 654,411 654,413 655,414 655,416 656,417 656,418 657,419 657,421 658,422 658,423 659,424 659,425 660,426 660,427 661,428 661,429 662,430 662,432 660,434 659,434 657,432 657,431 656,430 656,429 655,428 655,427 654,426 654,424 652,422 652,421 651,420 651,418 650,417 650,415 649,414 649,412 648,411 648,409 647,408 647,406 646,405 646,402 645,401 645,398 644,397 644,394 641,391 641,387 640,386 640,378 639,377 639,374 638,374 638,378 639,379 639,387 640,388 640,391 639,392 639,589 640,590 640,593 639,594 639,595 640,595 641,594 641,591 644,588 644,584 645,583 645,580 646,579 646,576 647,575 647,572 648,571 648,569 649,568 649,566 650,565 650,563 651,562 651,560 652,559 652,558 653,557 653,556 654,555 654,554 655,553 655,551 656,550 656,549 657,548 657,547 658,546 658,545 660,543 663,543 664,544 664,545 663,546 663,547 662,548 662,550 660,552 660,553 659,554 659,556 658,557 658,558 657,559 657,561 656,562 656,563 655,564 655,566 654,567 654,570 653,571 653,573 652,574 652,577 651,578 651,580 650,581 650,585 649,586 649,590 648,591 648,595 647,596 647,599 646,600 643,600 642,601 642,605 643,605 643,602 644,601 646,601 647,602 647,604 646,605 646,621 647,622 647,629 648,630 648,635 649,636 649,640 650,641 650,644 651,645 651,647 652,648 652,651 653,652 653,654 654,655 654,657 655,658 655,660 656,661 656,662 657,663 657,665 658,666 658,668 659,669 659,670 660,671 660,672 661,673 661,674 662,675 662,676 663,677 663,678 665,680 665,682 663,684 662,684 659,681 659,680 658,679 658,678 657,677 657,676 656,675 656,674 655,673 655,672 654,671 654,669 653,668 653,667 652,666 652,665 651,664 651,662 650,661 650,659 649,658 649,656 648,655 648,652 647,651 647,649 646,648 646,645 645,644 645,641 644,640 644,636 641,633 641,624 640,623 640,616 639,616 639,624 640,625 640,633 639,634 639,640 640,641 640,662 639,663 639,669 640,670 640,676 639,677 639,690 640,691 640,706 642,708 704,708 705,709 705,712 706,713 706,721 705,722 705,723 704,724 672,724 671,723 651,723 650,724 646,724 645,723 642,723 640,725 640,827 641,828 641,831 638,834 631,834 630,833 628,833 627,832 627,830 626,829 626,828 627,827 627,816 626,815 626,812 627,811 627,801 626,800 626,727 622,723 533,723 532,724 532,831 530,833 521,833 519,831 519,825 518,824 518,725 516,723 425,723 424,724 424,830 422,832 412,832 410,830 410,726 409,725 409,724 408,723 393,723 392,722 375,722 374,723 370,723 369,722 318,722 316,724 316,729 315,730 315,761 316,762 316,771 315,772 315,785 316,786 316,789 315,790 315,792 316,793 316,830 314,832 303,832 301,830 301,724 299,722 211,722 210,723 210,724 209,725 209,816 210,817 210,818 209,819 209,830 207,832 196,832 194,830 194,724 192,722 143,722 142,721 142,709 144,707 193,707 194,706 194,646 192,644 192,643 193,642 193,634 194,633 194,631 195,630 196,630 196,629 194,629 193,630 193,632 192,633 192,641 191,642 191,644 190,645 190,646 189,647 189,650 188,651 188,654 187,655 187,657 186,658 186,661 185,662 185,663 184,664 184,666 183,667 183,668 182,669 182,670 181,671 181,672 180,673 180,674 179,675 179,676 178,677 178,678 177,679 177,680 176,681 176,682 174,684 172,684 170,682 171,681 171,679 172,678 172,677 173,676 173,675 174,674 174,673 175,672 175,671 176,670 176,669 177,668 177,667 178,666 178,665 179,664 179,662 180,661 180,660 181,659 181,656 182,655 182,653 183,652 183,648 184,647 184,644 185,643 185,640 186,639 186,632 187,631 187,625 188,624 188,603 187,602 187,596 186,595 186,590 185,589 185,585 184,584 184,581 183,580 183,577 182,576 182,574 181,573 181,570 180,569 180,568 179,567 179,565 178,564 178,563 177,562 177,561 176,560 176,558 175,557 175,556 174,555 174,554 173,553 173,552 172,551 172,550 171,549 171,547 170,546 172,544 174,544 175,545 175,546 176,547 176,548 177,549 177,550 178,551 178,552 179,553 179,554 180,555 180,556 181,557 181,558 182,559 182,560 183,561 183,563 186,566 186,570 187,571 187,572 188,573 188,575 189,576 189,578 190,579 190,584 192,586 192,591 193,592 193,594 195,596 196,596 196,595 194,593 194,591 193,590 193,586 195,584 195,581 193,579 194,578 194,530 195,529 195,525 194,524 194,520 195,519 195,510 194,509 194,391 192,389 192,384 193,383 193,381 192,381 192,382 191,383 191,389 190,390 190,391 189,392 189,399 188,400 188,403 187,404 187,407 186,408 186,409 185,410 185,413 183,415 183,416 182,417 182,418 181,419 181,420 180,421 180,422 179,423 179,424 178,425 178,426 177,427 177,428 176,429 176,430 175,431 175,432 174,433 171,433 169,431 170,430 170,429 171,428 171,427 172,426 172,425 173,424 173,422 174,421 174,420 175,419 175,418 176,417 176,416 177,415 177,414 178,413 178,411 179,410 179,408 180,407 180,405 181,404 181,401 182,400 182,397 183,396 183,393 184,392 184,387 185,386 185,382 186,381 186,347 185,346 185,342 184,341 184,337 183,336 183,333 182,332 182,329 181,328 181,325 180,324 180,322 179,321 179,319 178,318 178,317 177,316 177,314 176,313 176,311 174,309 174,307 173,306 173,305 172,304 172,303 171,302 171,301 170,300 170,299 169,298 169,297 168,296 168,294 169,293 171,293 174,296 174,297 175,298 175,299 176,300 176,301 177,302 177,303 178,304 178,305 179,306 179,307 180,308 180,309 181,310 181,311 182,312 182,313 184,315 184,318 186,320 186,326 187,326 188,327 188,329 189,330 189,336 191,338 191,342 190,343 190,344 191,344 192,343 192,338 194,336 194,332 192,330 193,329 193,267 191,265 144,265 142,263 142,253 143,252 144,252 145,251 192,251 193,250 193,153 192,152 192,151 193,150 193,149 194,148 204,148 206,150 206,195 207,196 207,248 208,249 208,250 209,251 246,251 247,252 255,252 256,251 260,251 261,252 272,252 273,251 299,251 301,249 301,178 300,177 300,176 301,175 301,149 303,147 312,147 314,149 314,180 315,181 315,184 314,185 314,188 315,189 315,249 317,251 406,251 408,249 408,230 409,229 409,223 408,222 408,149 410,147 411,147 412,146 418,146 419,147 420,147 421,148 421,157 422,158 422,246 423,247 423,248 426,251 513,251 516,248 516,147 517,146 527,146 529,148 529,247 530,248 530,249 531,250 532,250 533,251 621,251 622,250 623,250 625,248" fill="none" stroke="red" stroke-width="1" opacity="0.8"/>
<polygon points="629,603 629,604 628,605 628,609 629,609 629,606 630,605 630,603" fill="none" stroke="red" stroke-width="1" opacity="0.8"/>
<polygon points="519,479 519,483 520,483 520,479" fill="none" stroke="red" stroke-width="1" opacity="0.8"/>
<polygon points="629,363 629,364 628,365 628,367 627,368 627,371 626,372 626,373 627,373 628,372 628,369 629,368 629,366 630,365 630,363" fill="none" stroke="red" stroke-width="1" opacity="0.8"/>
<polygon points="316,265 315,266 315,458 316,459 316,469 317,469 317,460 320,457 320,453 321,452 321,450 322,449 322,446 323,445 323,443 324,442 324,440 325,439 325,437 326,436 326,434 327,433 327,432 328,431 328,430 329,429 329,428 330,427 330,425 331,424 331,423 332,422 332,421 333,420 333,419 334,418 334,417 335,416 337,416 339,418 339,419 338,420 338,421 337,422 337,423 336,424 336,425 335,426 335,428 334,429 334,430 333,431 333,432 332,433 332,435 331,436 331,437 330,438 330,440 329,441 329,443 328,444 328,446 327,447 327,450 326,451 326,455 325,456 325,459 324,460 324,464 323,465 323,469 322,470 322,477 321,478 321,494 322,495 322,502 323,503 323,509 324,510 324,512 325,513 325,516 326,517 326,520 327,521 327,524 328,525 328,527 329,528 329,530 330,531 330,533 331,534 331,536 332,537 332,538 333,539 333,540 334,541 334,542 335,543 335,545 336,546 336,547 337,548 337,549 338,550 338,551 339,552 339,555 337,557 336,557 334,555 334,554 332,552 332,550 331,549 331,548 330,547 330,546 329,545 329,544 328,543 328,542 327,541 327,540 326,539 326,537 325,536 325,534 324,533 324,531 323,530 323,528 322,527 322,524 321,523 321,521 320,520 320,516 317,513 317,502 316,501 316,499 315,498 314,498 314,499 315,500 315,502 316,503 316,513 315,514 315,703 316,704 316,705 318,707 408,707 409,706 409,705 410,704 410,678 409,677 409,642 410,641 410,636 408,634 408,632 409,631 409,625 410,624 410,622 409,622 409,623 408,624 408,630 407,631 407,634 406,635 406,636 405,637 405,641 404,642 404,646 403,647 403,650 402,651 402,653 401,654 401,657 400,658 400,660 399,661 399,662 398,663 398,664 397,665 397,667 396,668 396,669 395,670 395,671 394,672 394,673 393,674 393,676 392,677 392,678 391,679 391,680 390,681 390,682 388,684 387,684 385,682 385,680 386,679 386,678 387,677 387,676 388,675 388,673 390,671 390,669 391,668 391,667 392,666 392,665 393,664 393,662 394,661 394,660 395,659 395,656 396,655 396,653 397,652 397,649 398,648 398,646 399,645 399,641 400,640 400,636 401,635 401,631 402,630 402,623 403,622 403,604 402,603 402,595 401,594 401,591 400,590 400,586 399,585 399,582 398,581 398,578 397,577 397,574 396,573 396,571 395,570 395,568 394,567 394,565 393,564 393,563 392,562 392,561 391,560 391,559 390,558 390,557 389,556 389,555 388,554 388,553 387,552 387,551 386,550 386,549 385,548 385,547 384,546 384,543 385,542 387,542 389,544 389,545 391,547 391,548 392,549 392,550 393,551 393,552 394,553 394,554 395,555 395,556 396,557 396,558 397,559 397,560 398,561 398,563 399,564 399,566 400,567 400,569 401,570 401,572 402,573 402,576 403,577 403,580 404,581 404,584 405,585 405,589 407,591 407,592 408,593 408,596 409,596 409,592 408,591 410,589 410,584 409,583 409,539 410,538 410,514 409,513 409,386 407,384 407,381 408,380 408,374 407,374 407,379 406,380 406,384 405,385 405,386 404,387 404,392 403,393 403,396 402,397 402,400 401,401 401,404 400,405 400,407 399,408 399,410 398,411 398,413 397,414 397,416 396,417 396,418 395,419 395,420 394,421 394,423 393,424 393,425 392,426 392,427 391,428 391,429 390,430 390,431 389,432 389,433 388,434 386,434 385,433 385,429 386,428 386,427 387,426 387,425 388,424 388,422 390,420 390,418 391,417 391,416 392,415 392,413 393,412 393,410 394,409 394,407 395,406 395,404 396,403 396,400 397,399 397,396 398,395 398,392 399,391 399,387 400,386 400,382 401,381 401,376 402,375 402,351 401,350 401,345 400,344 400,339 399,338 399,334 398,333 398,330 397,329 397,326 396,325 396,322 395,321 395,319 394,318 394,316 393,315 393,313 392,312 392,310 390,308 390,306 389,305 389,304 388,303 388,302 387,301 387,300 386,299 386,298 385,297 385,294 386,293 388,293 390,295 390,296 391,297 391,298 392,299 392,300 393,301 393,302 394,303 394,305 396,307 396,309 397,310 397,311 398,312 398,314 399,315 399,317 400,318 400,321 401,322 401,325 402,326 402,329 403,330 403,333 404,334 404,339 406,341 406,343 407,343 407,341 409,339 409,325 408,324 408,291 409,290 409,272 408,271 408,266 407,265" fill="none" stroke="red" stroke-width="1" opacity="0.8"/>
<polygon points="408,636 409,637 409,640 408,641 407,641 406,640 406,638" fill="none" stroke="red" stroke-width="1" opacity="0.8"/>
<polygon points="316,267 317,266 406,266 407,267 407,272 408,273 408,289 407,290 407,325 408,326 408,338 407,339 406,339 405,338 405,333 404,332 404,329 403,328 403,325 402,324 402,321 401,320 401,317 400,316 400,314 399,313 399,311 398,310 398,309 397,308 397,306 395,304 395,302 394,301 394,300 393,299 393,298 392,297 392,296 391,295 391,294 389,292 385,292 384,293 384,298 385,299 385,300 386,301 386,302 387,303 387,304 388,305 388,306 389,307 389,309 391,311 391,313 392,314 392,316 393,317 393,319 394,320 394,322 395,323 395,326 396,327 396,330 397,331 397,334 398,335 398,339 399,340 399,345 400,346 400,351 401,352 401,374 400,375 400,380 399,381 399,385 398,386 398,390 397,391 397,394 396,395 396,398 395,399 395,402 394,403 394,405 393,406 393,408 392,409 392,411 391,412 391,414 390,415 390,416 389,417 389,419 387,421 387,423 386,424 386,425 385,426 385,427 384,428 384,431 383,432 383,433 385,435 389,435 390,434 390,433 391,432 391,431 392,430 392,429 393,428 393,427 394,426 394,425 395,424 395,422 396,421 396,420 397,419 397,418 398,417 398,415 399,414 399,412 400,411 400,409 401,408 401,406 402,405 402,402 403,401 403,398 404,397 404,394 405,393 405,388 407,386 408,387 408,514 409,515 409,537 408,538 408,584 409,585 409,588 408,589 407,589 406,588 406,584 405,583 405,580 404,579 404,576 403,575 403,572 402,571 402,569 401,568 401,566 400,565 400,563 399,562 399,560 398,559 398,558 397,557 397,556 396,555 396,554 395,553 395,552 394,551 394,550 393,549 393,548 392,547 392,546 390,544 390,543 388,541 384,541 383,542 383,547 384,548 384,549 385,550 385,551 386,552 386,553 387,554 387,555 388,556 388,557 389,558 389,559 390,560 390,561 391,562 391,563 392,564 392,565 393,566 393,568 394,569 394,571 395,572 395,574 396,575 396,578 397,579 397,582 398,583 398,586 399,587 399,591 400,592 400,595 401,596 401,604 402,605 402,621 401,622 401,629 400,630 400,634 399,635 399,639 398,640 398,644 397,645 397,647 396,648 396,651 395,652 395,654 394,655 394,658 393,659 393,660 392,661 392,663 391,664 391,665 390,666 390,667 389,668 389,670 387,672 387,674 386,675 386,676 385,677 385,678 384,679 384,683 386,685 389,685 391,683 391,682 392,681 392,680 393,679 393,678 394,677 394,675 395,674 395,673 396,672 396,671 397,670 397,669 398,668 398,666 399,665 399,664 400,663 400,662 401,661 401,659 402,658 402,655 403,654 403,652 404,651 404,648 405,647 405,643 406,642 407,642 408,643 408,678 409,679 409,703 408,704 408,705 407,706 319,706 317,704 317,703 316,702 316,516 317,515 319,517 319,521 320,522 320,524 321,525 321,528 322,529 322,531 323,532 323,534 324,535 324,537 325,538 325,540 326,541 326,542 327,543 327,544 328,545 328,546 329,547 329,548 330,549 330,550 331,551 331,553 333,555 333,556 335,558 338,558 340,556 342,556 342,555 341,555 340,554 340,551 339,550 339,549 338,548 338,547 337,546 337,545 336,544 336,542 335,541 335,540 334,539 334,538 333,537 333,536 332,535 332,533 331,532 331,530 330,529 330,527 329,526 329,524 328,523 328,520 327,519 327,516 326,515 326,512 325,511 325,509 324,508 324,502 323,501 323,494 322,493 322,479 323,478 323,471 324,470 324,466 325,465 325,461 326,460 326,457 327,456 327,452 328,451 328,448 329,447 329,445 330,444 330,442 331,441 331,439 332,438 332,437 333,436 333,434 334,433 334,432 335,431 335,430 336,429 336,427 337,426 337,425 338,424 338,423 339,422 339,421 340,420 340,417 338,415 334,415 333,416 333,417 332,418 332,419 331,420 331,421 330,422 330,423 329,424 329,426 328,427 328,428 327,429 327,430 326,431 326,432 325,433 325,435 324,436 324,438 323,439 323,441 322,442 322,444 321,445 321,448 320,449 320,451 319,452 319,456 317,458 316,457" fill="none" stroke="red" stroke-width="1" opacity="0.8"/>
<polygon points="210,265 209,266 209,267 208,268 208,270 207,271 207,287 208,288 208,331 209,332 209,344 210,344 210,333 213,330 213,327 214,326 214,323 215,322 215,319 216,318 216,316 217,315 217,314 218,313 218,311 219,310 219,308 221,306 221,304 222,303 222,302 223,301 223,300 224,299 224,298 225,297 225,296 227,294 229,294 230,295 230,298 229,299 229,300 228,301 228,302 227,303 227,304 226,305 226,306 225,307 225,309 224,310 224,311 223,312 223,314 222,315 222,317 221,318 221,320 220,321 220,323 219,324 219,327 218,328 218,332 217,333 217,337 216,338 216,342 215,343 215,353 214,354 214,369 215,370 215,379 216,380 216,386 217,387 217,390 218,391 218,394 219,395 219,398 220,399 220,400 221,401 221,405 222,406 222,407 223,408 223,410 224,411 224,412 225,413 225,415 226,416 226,417 227,418 227,419 228,420 228,421 229,422 229,423 230,424 230,425 231,426 231,428 232,429 232,430 233,431 233,432 231,434 229,434 227,432 227,431 225,429 225,428 224,427 224,426 223,425 223,423 222,422 222,421 221,420 221,419 220,418 220,417 219,416 219,414 218,413 218,411 217,410 217,408 216,407 216,405 215,404 215,402 214,401 214,398 213,397 213,394 210,391 210,386 208,384 208,382 206,380 206,377 205,377 205,381 207,383 207,385 209,387 209,391 208,392 208,399 209,400 209,404 208,405 208,406 207,407 207,408 209,410 209,532 208,533 208,538 209,539 209,545 208,546 208,587 209,588 209,591 208,592 208,595 207,596 207,598 208,598 208,597 209,596 209,593 210,592 210,589 213,586 213,581 214,580 214,577 215,576 215,574 216,573 216,570 217,569 217,567 218,566 218,565 219,564 219,562 220,561 220,560 221,559 221,557 222,556 222,555 223,554 223,553 224,552 224,550 226,548 226,546 228,544 230,544 232,546 232,547 231,548 231,549 230,550 230,551 229,552 229,553 228,554 228,556 227,557 227,558 226,559 226,561 225,562 225,563 224,564 224,566 223,567 223,569 222,570 222,571 221,572 221,576 220,577 220,579 219,580 219,585 218,586 218,588 217,589 217,591 216,592 216,605 215,606 213,606 211,608 211,611 212,611 212,609 214,607 215,607 216,608 216,620 215,621 215,623 217,625 217,632 216,633 216,634 217,635 217,639 218,640 218,642 220,644 220,651 221,652 221,655 222,656 222,659 225,662 225,663 226,664 226,669 227,670 227,671 228,672 228,673 229,674 229,675 230,676 230,677 231,678 231,679 232,680 232,681 231,682 231,683 230,684 228,684 225,681 225,680 224,679 224,678 223,677 223,676 222,675 222,674 221,673 221,671 220,670 220,669 219,668 219,667 218,666 218,664 217,663 217,661 216,660 216,658 215,657 215,654 214,653 214,650 211,647 211,641 210,640 210,637 209,636 209,632 207,630 206,630 206,631 208,633 208,637 209,638 209,641 210,642 210,647 209,648 209,705 211,707 221,707 222,708 228,708 229,707 299,707 301,705 301,513 299,511 299,508 300,507 300,501 299,501 299,506 298,507 298,511 297,512 297,513 296,514 296,519 295,520 295,523 294,524 294,526 293,527 293,531 292,532 292,534 291,535 291,537 290,538 290,540 288,542 288,544 287,545 287,546 286,547 286,548 285,549 285,550 284,551 284,552 283,553 283,554 282,555 282,556 281,557 280,557 278,555 278,552 279,551 279,549 280,548 280,547 281,546 281,545 282,544 282,543 283,542 283,541 284,540 284,538 285,537 285,535 286,534 286,532 287,531 287,529 288,528 288,525 289,524 289,521 290,520 290,517 291,516 291,512 292,511 292,506 293,505 293,497 294,496 294,478 293,477 293,469 292,468 292,464 291,463 291,459 290,458 290,455 289,454 289,451 288,450 288,447 287,446 287,444 286,443 286,441 285,440 285,438 284,437 284,435 283,434 283,433 282,432 282,431 281,430 281,429 280,428 280,427 279,426 279,425 278,424 278,423 277,422 277,421 276,420 276,417 277,416 279,416 282,419 282,420 283,421 283,422 284,423 284,424 285,425 285,427 287,429 287,430 288,431 288,433 289,434 289,435 290,436 290,437 291,438 291,440 292,441 292,443 293,444 293,447 294,448 294,450 295,451 295,453 296,454 296,459 298,461 298,469 300,471 302,471 302,470 301,470 299,468 299,461 301,459 301,267 299,265" fill="none" stroke="red" stroke-width="1" opacity="0.8"/>
<polygon points="210,267 211,266 298,266 300,268 300,458 299,459 298,459 297,458 297,453 296,452 296,450 295,449 295,447 294,446 294,443 293,442 293,440 292,439 292,437 291,436 291,435 290,434 290,433 289,432 289,430 288,429 288,428 286,426 286,424 285,423 285,422 284,421 284,420 283,419 283,418 280,415 276,415 275,416 275,421 276,422 276,423 277,424 277,425 278,426 278,427 279,428 279,429 280,430 280,431 281,432 281,433 282,434 282,435 283,436 283,438 284,439 284,441 285,442 285,444 286,445 286,447 287,448 287,451 288,452 288,455 289,456 289,459 290,460 290,464 291,465 291,469 292,470 292,478 293,479 293,495 292,496 292,504 291,505 291,510 290,511 290,515 289,516 289,519 288,520 288,523 287,524 287,527 286,528 286,530 285,531 285,533 284,534 284,536 283,537 283,539 282,540 282,541 281,542 281,543 280,544 280,545 279,546 279,547 278,548 278,550 277,551 277,553 276,554 276,555 279,558 282,558 283,557 283,556 284,555 284,554 285,553 285,552 286,551 286,550 287,549 287,548 288,547 288,546 289,545 289,543 291,541 291,539 292,538 292,536 293,535 293,533 294,532 294,528 295,527 295,525 296,524 296,521 297,520 297,515 299,513 300,514 300,704 298,706 228,706 227,707 223,707 222,706 212,706 210,704 210,650 211,649 213,651 213,654 214,655 214,658 215,659 215,661 216,662 216,664 217,665 217,667 218,668 218,669 219,670 219,671 220,672 220,674 221,675 221,676 222,677 222,678 223,679 223,680 224,681 224,682 227,685 231,685 232,684 232,683 233,682 233,679 232,678 232,677 231,676 231,675 230,674 230,673 229,672 229,671 228,670 228,669 227,668 227,663 226,662 226,661 223,658 223,655 222,654 222,651 221,650 221,643 219,641 219,639 218,638 218,624 216,622 217,621 217,593 218,592 218,590 219,589 219,587 220,586 220,581 221,580 221,578 222,577 222,573 223,572 223,571 224,570 224,568 225,567 225,565 226,564 226,563 227,562 227,560 228,559 228,558 229,557 229,555 230,554 230,553 231,552 231,551 232,550 232,549 233,548 233,545 231,543 229,543 228,542 227,542 227,543 225,545 225,547 223,549 223,551 222,552 222,553 221,554 221,555 220,556 220,558 219,559 219,560 218,561 218,563 217,564 217,565 216,566 216,568 215,569 215,572 214,573 214,575 213,576 213,579 212,580 212,585 210,587 209,586 209,547 210,546 210,538 209,537 209,534 210,533 210,409 209,408 209,406 210,405 210,399 209,398 209,394 210,393 212,395 212,398 213,399 213,402 214,403 214,405 215,406 215,408 216,409 216,411 217,412 217,414 218,415 218,417 219,418 219,419 220,420 220,421 221,422 221,423 222,424 222,426 223,427 223,428 224,429 224,430 226,432 226,433 228,435 232,435 234,433 234,430 233,429 233,428 232,427 232,425 231,424 231,423 230,422 230,421 229,420 229,419 228,418 228,417 227,416 227,415 226,414 226,412 225,411 225,410 224,409 224,407 223,406 223,405 222,404 222,400 221,399 221,398 220,397 220,394 219,393 219,390 218,389 218,386 217,385 217,379 216,378 216,369 215,368 215,355 216,354 216,344 217,343 217,339 218,338 218,334 219,333 219,329 220,328 220,325 221,324 221,322 222,321 222,319 223,318 223,316 224,315 224,313 225,312 225,311 226,310 226,308 227,307 227,306 228,305 228,304 229,303 229,302 230,301 230,300 231,299 231,294 230,293 229,293 228,292 227,292 224,295 224,296 223,297 223,298 222,299 222,300 221,301 221,302 220,303 220,305 218,307 218,309 217,310 217,312 216,313 216,314 215,315 215,317 214,318 214,321 213,322 213,325 212,326 212,329 210,331 209,330 209,287 208,286 208,272 209,271 209,269 210,268" fill="none" stroke="red" stroke-width="1" opacity="0.8"/>
<polygon points="532,264 530,266 530,268 529,269 529,272 530,273 530,275 529,276 529,281 530,282 530,463 531,464 531,470 530,471 530,472 529,473 529,474 530,474 531,473 531,472 532,471 532,465 535,462 535,459 536,458 536,454 537,453 537,451 538,450 538,447 539,446 539,444 540,443 540,441 541,440 541,438 542,437 542,435 543,434 543,433 544,432 544,430 546,428 546,426 548,424 548,423 549,422 549,421 550,420 552,420 554,422 554,423 553,424 553,425 551,427 551,428 550,429 550,431 549,432 549,433 548,434 548,436 547,437 547,438 546,439 546,441 545,442 545,444 544,445 544,447 543,448 543,451 542,452 542,455 541,456 541,459 540,460 540,463 539,464 539,468 538,469 538,477 537,478 535,478 534,479 534,482 535,483 536,483 537,484 537,503 538,504 538,509 539,510 539,514 540,515 540,518 541,519 541,522 542,523 542,526 543,527 543,529 544,530 544,533 545,534 545,536 546,537 546,538 547,539 547,541 548,542 548,544 549,545 549,546 550,547 550,548 551,549 551,551 552,552 552,554 553,555 553,556 554,557 554,560 553,561 551,561 549,559 549,558 548,557 548,556 547,555 547,554 546,553 546,552 545,551 545,550 544,549 544,547 543,546 543,545 542,544 542,542 541,541 541,539 540,538 540,536 539,535 539,533 538,532 538,529 537,528 537,526 536,525 536,521 535,520 535,517 532,514 532,508 531,507 531,499 530,498 531,497 531,490 530,490 530,496 529,497 529,499 530,500 530,508 531,509 531,514 530,515 530,585 531,586 531,589 530,590 530,602 531,603 531,704 532,705 532,706 533,707 562,707 563,708 570,708 571,707 573,707 574,708 574,710 575,710 575,708 576,707 624,707 626,705 626,636 624,634 624,630 625,629 625,623 626,622 626,621 625,621 624,622 624,628 623,629 623,634 622,635 622,636 621,637 621,641 620,642 620,646 619,647 619,650 618,651 618,653 617,654 617,657 616,658 616,660 615,661 615,663 614,664 614,665 613,666 613,668 612,669 612,670 611,671 611,672 610,673 610,675 609,676 609,677 608,678 608,679 607,680 607,681 606,682 606,683 605,684 603,684 601,682 601,680 602,679 602,678 603,677 603,676 604,675 604,674 605,673 605,672 606,671 606,669 607,668 607,667 608,666 608,665 609,664 609,662 610,661 610,659 611,658 611,656 612,655 612,653 613,652 613,649 614,648 614,645 615,644 615,640 616,639 616,635 617,634 617,630 618,629 618,620 619,619 619,606 618,605 618,596 617,595 617,591 616,590 616,586 615,585 615,582 614,581 614,578 613,577 613,573 612,572 612,570 611,569 611,567 610,566 610,564 609,563 609,561 608,560 608,559 607,558 607,557 606,556 606,555 605,554 605,553 604,552 604,551 603,550 603,548 602,547 602,545 601,544 603,542 605,542 606,543 606,544 607,545 607,546 608,547 608,548 609,549 609,550 610,551 610,552 611,553 611,554 612,555 612,556 613,557 613,558 614,559 614,561 615,562 615,564 616,565 616,567 617,568 617,571 618,572 618,574 619,575 619,579 620,580 620,583 621,584 621,588 623,590 623,594 624,594 624,590 626,588 626,585 625,584 625,389 623,387 623,386 624,385 624,375 623,375 623,384 622,385 622,387 621,388 621,389 620,390 620,395 619,396 619,398 618,399 618,402 617,403 617,406 616,407 616,409 615,410 615,412 614,413 614,414 613,415 613,417 612,418 612,419 611,420 611,421 610,422 610,423 609,424 609,425 608,426 608,427 607,428 607,429 606,430 606,431 605,432 605,433 603,435 602,435 600,433 600,431 601,430 601,429 602,428 602,427 603,426 603,425 604,424 604,423 605,422 605,421 606,420 606,419 607,418 607,417 608,416 608,414 609,413 609,412 610,411 610,409 611,408 611,406 612,405 612,402 613,401 613,398 614,397 614,394 615,393 615,390 616,389 616,385 617,384 617,379 618,378 618,351 617,350 617,346 616,345 616,341 615,340 615,336 614,335 614,332 613,331 613,328 612,327 612,325 611,324 611,322 610,321 610,319 609,318 609,316 608,315 608,313 607,312 607,311 606,310 606,308 604,306 604,305 603,304 603,302 602,301 602,300 601,299 601,298 600,297 600,295 601,294 603,294 606,297 606,298 607,299 607,301 608,302 608,303 609,304 609,305 610,306 610,307 611,308 611,309 612,310 612,311 613,312 613,314 614,315 614,316 615,317 615,320 616,321 616,323 617,324 617,326 618,327 618,330 619,331 619,334 620,335 620,339 622,341 622,344 623,345 623,350 624,350 624,344 623,343 623,341 625,339 625,266 623,264" fill="none" stroke="red" stroke-width="1" opacity="0.8"/>
<polygon points="622,585 623,584 625,586 625,587 624,588 623,588 622,587" fill="none" stroke="red" stroke-width="1" opacity="0.8"/>
<polygon points="535,480 536,479 537,479 538,480 538,481 537,482 536,482 535,481" fill="none" stroke="red" stroke-width="1" opacity="0.8"/>
<polygon points="533,265 622,265 624,267 624,338 623,339 622,339 621,338 621,334 620,333 620,330 619,329 619,326 618,325 618,323 617,322 617,320 616,319 616,316 615,315 615,314 614,313 614,311 613,310 613,309 612,308 612,307 611,306 611,305 610,304 610,303 609,302 609,301 608,300 608,298 607,297 607,296 604,293 600,293 599,294 599,298 600,299 600,300 601,301 601,302 602,303 602,305 603,306 603,307 605,309 605,311 606,312 606,313 607,314 607,316 608,317 608,319 609,320 609,322 610,323 610,325 611,326 611,328 612,329 612,332 613,333 613,336 614,337 614,341 615,342 615,346 616,347 616,351 617,352 617,377 616,378 616,383 615,384 615,388 614,389 614,392 613,393 613,396 612,397 612,400 611,401 611,404 610,405 610,407 609,408 609,410 608,411 608,412 607,413 607,415 606,416 606,417 605,418 605,419 604,420 604,421 603,422 603,423 602,424 602,425 601,426 601,427 600,428 600,429 599,430 599,434 601,436 604,436 606,434 606,433 607,432 607,431 608,430 608,429 609,428 609,427 610,426 610,425 611,424 611,423 612,422 612,421 613,420 613,419 614,418 614,416 615,415 615,414 616,413 616,411 617,410 617,408 618,407 618,404 619,403 619,400 620,399 620,397 621,396 621,391 623,389 624,390 624,582 623,583 622,583 621,582 621,579 620,578 620,574 619,573 619,571 618,570 618,567 617,566 617,564 616,563 616,561 615,560 615,558 614,557 614,556 613,555 613,554 612,553 612,552 611,551 611,550 610,549 610,548 609,547 609,546 608,545 608,544 607,543 607,542 606,541 602,541 600,543 600,545 601,546 601,548 602,549 602,551 603,552 603,553 604,554 604,555 605,556 605,557 606,558 606,559 607,560 607,561 608,562 608,564 609,565 609,567 610,568 610,570 611,571 611,573 612,574 612,578 613,579 613,582 614,583 614,586 615,587 615,591 616,592 616,596 617,597 617,606 618,607 618,618 617,619 617,628 616,629 616,633 615,634 615,638 614,639 614,643 613,644 613,647 612,648 612,651 611,652 611,654 610,655 610,657 609,658 609,660 608,661 608,663 607,664 607,665 606,666 606,667 605,668 605,670 604,671 604,672 603,673 603,674 602,675 602,676 601,677 601,678 600,679 600,683 602,685 606,685 607,684 607,683 608,682 608,681 609,680 609,679 610,678 610,677 611,676 611,674 612,673 612,672 613,671 613,670 614,669 614,667 615,666 615,665 616,664 616,662 617,661 617,659 618,658 618,655 619,654 619,652 620,651 620,648 621,647 621,643 622,642 622,638 624,636 625,637 625,704 623,706 570,706 569,707 564,707 563,706 534,706 533,705 533,704 532,703 532,602 531,601 531,591 532,590 532,585 531,584 531,517 532,516 534,518 534,521 535,522 535,526 536,527 536,529 537,530 537,533 538,534 538,536 539,537 539,539 540,540 540,542 541,543 541,545 542,546 542,547 543,548 543,550 544,551 544,552 545,553 545,554 546,555 546,556 547,557 547,558 548,559 548,560 550,562 554,562 555,561 555,556 554,555 554,554 553,553 553,551 552,550 552,548 551,547 551,546 550,545 550,544 549,543 549,541 548,540 548,538 547,537 547,536 546,535 546,533 545,532 545,529 544,528 544,526 543,525 543,522 542,521 542,518 541,517 541,514 540,513 540,509 539,508 539,503 538,502 538,483 539,482 539,470 540,469 540,465 541,464 541,461 542,460 542,457 543,456 543,453 544,452 544,449 545,448 545,446 546,445 546,443 547,442 547,440 548,439 548,438 549,437 549,435 550,434 550,433 551,432 551,430 552,429 552,428 554,426 554,425 555,424 555,421 553,419 549,419 548,420 548,421 547,422 547,423 545,425 545,427 543,429 543,431 542,432 542,433 541,434 541,436 540,437 540,439 539,440 539,442 538,443 538,445 537,446 537,449 536,450 536,452 535,453 535,457 534,458 534,461 532,463 531,462 531,281 530,280 530,277 531,276 531,272 530,271 530,270 531,269 531,267" fill="none" stroke="red" stroke-width="1" opacity="0.8"/>
<polygon points="453,264 452,265 424,265 422,267 422,337 423,338 423,347 421,349 421,350 422,350 424,348 424,339 427,336 427,333 428,332 428,329 429,328 429,325 430,324 430,321 431,320 431,318 432,317 432,315 433,314 433,313 434,312 434,310 435,309 435,307 436,306 436,305 437,304 437,303 438,302 438,301 439,300 439,299 440,298 440,297 441,296 441,295 443,293 444,293 446,295 446,297 445,298 445,299 444,300 444,302 443,303 443,304 442,305 442,306 441,307 441,308 440,309 440,311 439,312 439,314 438,315 438,316 437,317 437,320 436,321 436,323 435,324 435,327 434,328 434,331 433,332 433,335 432,336 432,340 431,341 431,345 430,346 430,357 429,358 429,372 430,373 430,382 431,383 431,385 432,386 432,389 433,390 433,395 434,396 434,399 435,400 435,403 436,404 436,406 437,407 437,409 438,410 438,412 439,413 439,415 440,416 440,417 441,418 441,420 442,421 442,423 443,424 443,426 445,428 445,429 446,430 446,433 445,434 442,434 439,431 439,430 438,429 438,428 437,427 437,425 436,424 436,423 435,422 435,420 434,419 434,418 433,417 433,415 432,414 432,412 431,411 431,409 430,408 430,405 429,404 429,401 428,400 428,397 425,394 425,390 424,389 424,379 423,379 423,390 424,391 424,394 423,395 423,579 424,580 424,583 423,584 423,588 424,589 424,596 423,597 423,599 424,599 424,598 425,597 425,590 428,587 428,583 429,582 429,579 430,578 430,575 431,574 431,572 432,571 432,568 433,567 433,565 434,564 434,562 435,561 435,559 436,558 436,557 437,556 437,555 438,554 438,552 439,551 439,550 440,549 440,548 441,547 441,546 442,545 442,544 443,543 445,543 447,545 447,546 446,547 446,548 445,549 445,550 444,551 444,553 443,554 443,555 442,556 442,557 441,558 441,560 440,561 440,563 439,564 439,565 438,566 438,569 437,570 437,572 436,573 436,576 435,577 435,579 434,580 434,584 433,585 433,589 432,590 432,593 431,594 431,602 429,604 427,604 427,605 429,605 430,606 430,621 431,622 431,628 432,629 432,633 433,634 433,638 434,639 434,642 435,643 435,646 436,647 436,650 437,651 437,653 438,654 438,657 439,658 439,659 440,660 440,662 441,663 441,664 442,665 442,667 443,668 443,669 444,670 444,671 445,672 445,674 446,675 446,676 447,677 447,678 448,679 448,680 449,681 449,682 447,684 445,684 443,682 443,681 442,680 442,679 441,678 441,677 440,676 440,675 439,674 439,673 438,672 438,671 437,670 437,669 436,668 436,667 435,666 435,664 434,663 434,661 433,660 433,658 432,657 432,654 431,653 431,651 430,650 430,647 429,646 429,643 426,640 426,635 425,634 425,626 424,625 425,624 425,623 424,623 423,624 423,626 424,627 424,635 425,636 425,640 424,641 424,706 425,707 516,707 517,706 517,705 518,704 518,681 517,680 517,549 516,548 516,518 515,517 515,506 516,505 516,500 517,499 517,495 516,495 516,498 515,499 515,504 514,505 514,515 512,517 512,518 511,519 511,523 510,524 510,527 509,528 509,530 508,531 508,534 507,535 507,537 506,538 506,540 505,541 505,542 504,543 504,545 502,547 502,548 501,549 501,550 500,551 500,552 499,553 499,554 498,555 498,557 496,559 496,560 495,561 493,561 491,559 492,558 492,556 493,555 493,554 494,553 494,552 495,551 495,550 496,549 496,548 497,547 497,546 498,545 498,544 499,543 499,541 500,540 500,539 501,538 501,536 502,535 502,533 503,532 503,530 504,529 504,525 505,524 505,522 506,521 506,518 507,517 507,513 508,512 508,508 509,507 509,495 510,494 510,485 509,484 509,475 508,474 508,470 507,469 507,465 506,464 506,460 505,459 505,457 504,456 504,453 503,452 503,450 502,449 502,446 501,445 501,443 500,442 500,441 499,440 499,438 497,436 497,434 496,433 496,432 495,431 495,430 494,429 494,428 493,427 493,426 492,425 492,422 493,421 494,421 495,420 496,421 496,422 498,424 498,426 499,427 499,428 500,429 500,430 501,431 501,432 502,433 502,434 503,435 503,437 504,438 504,439 505,440 505,441 506,442 506,444 507,445 507,447 508,448 508,451 509,452 509,454 510,455 510,458 511,459 511,463 513,465 513,466 514,467 514,474 515,475 515,476 516,476 516,474 515,473 515,466 514,465 516,463 516,266 515,265 514,265 513,264" fill="none" stroke="red" stroke-width="1" opacity="0.8"/>
<polygon points="426,583 427,584 427,586 425,588 424,587 424,585" fill="none" stroke="red" stroke-width="1" opacity="0.8"/>
<polygon points="453,266 454,265 512,265 513,266 514,266 515,267 515,462 514,463 513,463 512,462 512,458 511,457 511,454 510,453 510,451 509,450 509,447 508,446 508,444 507,443 507,441 506,440 506,439 505,438 505,437 504,436 504,434 503,433 503,432 502,431 502,430 501,429 501,428 500,427 500,426 499,425 499,423 497,421 497,420 496,419 494,419 493,420 492,420 491,421 491,426 492,427 492,428 493,429 493,430 494,431 494,432 495,433 495,434 496,435 496,437 498,439 498,441 499,442 499,443 500,444 500,446 501,447 501,450 502,451 502,453 503,454 503,457 504,458 504,460 505,461 505,465 506,466 506,470 507,471 507,475 508,476 508,485 509,486 509,493 508,494 508,506 507,507 507,511 506,512 506,516 505,517 505,520 504,521 504,523 503,524 503,528 502,529 502,531 501,532 501,534 500,535 500,537 499,538 499,539 498,540 498,542 497,543 497,544 496,545 496,546 495,547 495,548 494,549 494,550 493,551 493,552 492,553 492,554 491,555 491,557 490,558 490,560 492,562 496,562 497,561 497,560 499,558 499,556 500,555 500,554 501,553 501,552 502,551 502,550 503,549 503,548 505,546 505,544 506,543 506,542 507,541 507,539 508,538 508,536 509,535 509,532 510,531 510,529 511,528 511,525 512,524 512,520 514,518 515,519 515,549 516,550 516,681 517,682 517,703 516,704 516,705 515,706 426,706 425,705 425,643 426,642 428,644 428,647 429,648 429,651 430,652 430,654 431,655 431,658 432,659 432,661 433,662 433,664 434,665 434,667 435,668 435,669 436,670 436,671 437,672 437,673 438,674 438,675 439,676 439,677 440,678 440,679 441,680 441,681 442,682 442,683 444,685 448,685 450,683 450,680 449,679 449,678 448,677 448,676 447,675 447,674 446,673 446,671 445,670 445,669 444,668 444,667 443,666 443,664 442,663 442,662 441,661 441,659 440,658 440,657 439,656 439,653 438,652 438,650 437,649 437,646 436,645 436,642 435,641 435,638 434,637 434,633 433,632 433,628 432,627 432,621 431,620 431,604 432,603 432,595 433,594 433,591 434,590 434,586 435,585 435,581 436,580 436,578 437,577 437,574 438,573 438,571 439,570 439,567 440,566 440,565 441,564 441,562 442,561 442,559 443,558 443,557 444,556 444,555 445,554 445,552 446,551 446,550 447,549 447,548 448,547 448,544 446,542 442,542 441,543 441,544 440,545 440,546 439,547 439,548 438,549 438,550 437,551 437,553 436,554 436,555 435,556 435,557 434,558 434,560 433,561 433,563 432,564 432,566 431,567 431,570 430,571 430,573 429,574 429,577 428,578 428,581 427,582 426,582 425,581 425,579 424,578 424,397 425,396 427,398 427,401 428,402 428,405 429,406 429,409 430,410 430,412 431,413 431,415 432,416 432,418 433,419 433,420 434,421 434,423 435,424 435,425 436,426 436,428 437,429 437,430 438,431 438,432 441,435 446,435 447,434 447,429 446,428 446,427 444,425 444,423 443,422 443,420 442,419 442,417 441,416 441,415 440,414 440,412 439,411 439,409 438,408 438,406 437,405 437,403 436,402 436,399 435,398 435,395 434,394 434,389 433,388 433,385 432,384 432,382 431,381 431,372 430,371 430,359 431,358 431,347 432,346 432,342 433,341 433,337 434,336 434,333 435,332 435,329 436,328 436,325 437,324 437,322 438,321 438,318 439,317 439,316 440,315 440,313 441,312 441,310 442,309 442,308 443,307 443,306 444,305 444,304 445,303 445,301 446,300 446,299 447,298 447,294 445,292 442,292 440,294 440,295 439,296 439,297 438,298 438,299 437,300 437,301 436,302 436,303 435,304 435,305 434,306 434,308 433,309 433,311 432,312 432,313 431,314 431,316 430,317 430,319 429,320 429,323 428,324 428,327 427,328 427,331 426,332 426,335 424,337 423,336 423,268 425,266" fill="none" stroke="red" stroke-width="1" opacity="0.8"/>
</svg>