<svg xmlns="http://www.w3.org/2000/svg" version="1.1" width="470" height="470">
<line x1="49" y1="469" x2="49" y2="0" stroke="blue" stroke-width="2"/>
<line x1="423" y1="462" x2="423" y2="0" stroke="blue" stroke-width="2"/>
<line x1="326" y1="412" x2="326" y2="47" stroke="blue" stroke-width="2"/>
<line x1="348" y1="329" x2="348" y2="61" stroke="blue" stroke-width="2"/>
<line x1="381" y1="347" x2="381" y2="30" stroke="blue" stroke-width="2"/>
<line x1="321" y1="388" x2="321" y2="242" stroke="blue" stroke-width="2"/>
<line x1="336" y1="376" x2="336" y2="47" stroke="blue" stroke-width="2"/>
<line x1="137" y1="386" x2="137" y2="239" stroke="blue" stroke-width="2"/>
<line x1="93" y1="401" x2="363" y2="401" stroke="blue" stroke-width="2"/>
<line x1="94" y1="396" x2="222" y2="396" stroke="blue" stroke-width="2"/>
<line x1="125" y1="364" x2="125" y2="308" stroke="blue" stroke-width="2"/>
<line x1="131" y1="395" x2="131" y2="49" stroke="blue" stroke-width="2"/>
<line x1="94" y1="67" x2="363" y2="67" stroke="blue" stroke-width="2"/>
<line x1="69" y1="445" x2="193" y2="445" stroke="blue" stroke-width="2"/>
<line x1="96" y1="61" x2="361" y2="61" stroke="blue" stroke-width="2"/>
<line x1="106" y1="412" x2="360" y2="412" stroke="blue" stroke-width="2"/>
<line x1="124" y1="47" x2="335" y2="47" stroke="blue" stroke-width="2"/>
<line x1="242" y1="212" x2="320" y2="77" stroke="blue" stroke-width="2"/>
<line x1="129" y1="176" x2="129" y2="52" stroke="blue" stroke-width="2"/>
<line x1="124" y1="238" x2="124" y2="48" stroke="blue" stroke-width="2"/>
<line x1="173" y1="326" x2="230" y2="223" stroke="blue" stroke-width="2"/>
<line x1="268" y1="158" x2="306" y2="88" stroke="blue" stroke-width="2"/>
<line x1="130" y1="52" x2="328" y2="52" stroke="blue" stroke-width="2"/>
<line x1="317" y1="328" x2="317" y2="171" stroke="blue" stroke-width="2"/>
<line x1="240" y1="260" x2="317" y2="394" stroke="blue" stroke-width="2"/>
<line x1="312" y1="396" x2="312" y2="69" stroke="blue" stroke-width="2"/>
<line x1="127" y1="377" x2="335" y2="377" stroke="blue" stroke-width="2"/>
<line x1="148" y1="28" x2="319" y2="28" stroke="blue" stroke-width="2"/>
<line x1="139" y1="69" x2="212" y2="196" stroke="blue" stroke-width="2"/>
<line x1="197" y1="447" x2="257" y2="446" stroke="blue" stroke-width="2"/>
<line x1="153" y1="330" x2="157" y2="213" stroke="blue" stroke-width="2"/>
<line x1="209" y1="192" x2="226" y2="326" stroke="blue" stroke-width="2"/>
<line x1="104" y1="29" x2="166" y2="29" stroke="blue" stroke-width="2"/>
<line x1="79" y1="432" x2="79" y2="316" stroke="blue" stroke-width="2"/>
<line x1="227" y1="226" x2="319" y2="386" stroke="blue" stroke-width="2"/>
<line x1="380" y1="406" x2="380" y2="336" stroke="blue" stroke-width="2"/>
<line x1="127" y1="318" x2="127" y2="175" stroke="blue" stroke-width="2"/>
<line x1="180" y1="326" x2="232" y2="230" stroke="blue" stroke-width="2"/>
<line x1="244" y1="283" x2="295" y2="367" stroke="blue" stroke-width="2"/>
<line x1="132" y1="90" x2="187" y2="192" stroke="blue" stroke-width="2"/>
<line x1="139" y1="81" x2="213" y2="209" stroke="blue" stroke-width="2"/>
<line x1="328" y1="325" x2="328" y2="219" stroke="blue" stroke-width="2"/>
<line x1="158" y1="362" x2="189" y2="309" stroke="blue" stroke-width="2"/>
<line x1="132" y1="122" x2="219" y2="222" stroke="blue" stroke-width="2"/>
<line x1="220" y1="271" x2="222" y2="336" stroke="blue" stroke-width="2"/>
<line x1="138" y1="388" x2="234" y2="214" stroke="blue" stroke-width="2"/>
<line x1="262" y1="240" x2="274" y2="306" stroke="blue" stroke-width="2"/>
<line x1="204" y1="231" x2="258" y2="314" stroke="blue" stroke-width="2"/>
<line x1="201" y1="72" x2="211" y2="169" stroke="blue" stroke-width="2"/>
<line x1="211" y1="326" x2="216" y2="239" stroke="blue" stroke-width="2"/>
<line x1="262" y1="143" x2="284" y2="72" stroke="blue" stroke-width="2"/>
<line x1="287" y1="256" x2="315" y2="324" stroke="blue" stroke-width="2"/>
<line x1="311" y1="287" x2="311" y2="80" stroke="blue" stroke-width="2"/>
<line x1="197" y1="106" x2="206" y2="167" stroke="blue" stroke-width="2"/>
<line x1="251" y1="128" x2="255" y2="71" stroke="blue" stroke-width="2"/>
<line x1="236" y1="72" x2="243" y2="126" stroke="blue" stroke-width="2"/>
<line x1="263" y1="240" x2="284" y2="311" stroke="blue" stroke-width="2"/>
<line x1="163" y1="187" x2="192" y2="266" stroke="blue" stroke-width="2"/>
<line x1="168" y1="193" x2="190" y2="326" stroke="blue" stroke-width="2"/>
<line x1="224" y1="237" x2="233" y2="344" stroke="blue" stroke-width="2"/>
<line x1="231" y1="140" x2="262" y2="203" stroke="blue" stroke-width="2"/>
<line x1="177" y1="73" x2="188" y2="130" stroke="blue" stroke-width="2"/>
<line x1="223" y1="245" x2="269" y2="146" stroke="blue" stroke-width="2"/>
<line x1="168" y1="261" x2="170" y2="194" stroke="blue" stroke-width="2"/>
<line x1="150" y1="278" x2="153" y2="209" stroke="blue" stroke-width="2"/>
<line x1="137" y1="111" x2="174" y2="171" stroke="blue" stroke-width="2"/>
<line x1="268" y1="250" x2="320" y2="330" stroke="blue" stroke-width="2"/>
<line x1="174" y1="266" x2="191" y2="196" stroke="blue" stroke-width="2"/>
<line x1="204" y1="71" x2="212" y2="169" stroke="blue" stroke-width="2"/>
<line x1="208" y1="71" x2="212" y2="129" stroke="blue" stroke-width="2"/>
<line x1="132" y1="178" x2="132" y2="69" stroke="blue" stroke-width="2"/>
<line x1="237" y1="70" x2="245" y2="125" stroke="blue" stroke-width="2"/>
<line x1="228" y1="145" x2="297" y2="76" stroke="blue" stroke-width="2"/>
<line x1="207" y1="215" x2="213" y2="273" stroke="blue" stroke-width="2"/>
<line x1="240" y1="173" x2="316" y2="249" stroke="blue" stroke-width="2"/>
<line x1="147" y1="102" x2="161" y2="158" stroke="blue" stroke-width="2"/>
<line x1="205" y1="71" x2="231" y2="125" stroke="blue" stroke-width="2"/>
<line x1="199" y1="297" x2="221" y2="372" stroke="blue" stroke-width="2"/>
<line x1="243" y1="371" x2="254" y2="242" stroke="blue" stroke-width="2"/>
<line x1="299" y1="212" x2="304" y2="312" stroke="blue" stroke-width="2"/>
<line x1="159" y1="94" x2="213" y2="139" stroke="blue" stroke-width="2"/>
<line x1="213" y1="70" x2="215" y2="122" stroke="blue" stroke-width="2"/>
<line x1="258" y1="134" x2="265" y2="71" stroke="blue" stroke-width="2"/>
<line x1="144" y1="389" x2="181" y2="324" stroke="blue" stroke-width="2"/>
<line x1="137" y1="81" x2="157" y2="158" stroke="blue" stroke-width="2"/>
<line x1="137" y1="154" x2="137" y2="210" stroke="blue" stroke-width="2"/>
<line x1="210" y1="193" x2="232" y2="245" stroke="blue" stroke-width="2"/>
<line x1="137" y1="118" x2="169" y2="170" stroke="blue" stroke-width="2"/>
<line x1="205" y1="74" x2="210" y2="132" stroke="blue" stroke-width="2"/>
<line x1="320" y1="226" x2="321" y2="169" stroke="blue" stroke-width="2"/>
<line x1="180" y1="151" x2="195" y2="215" stroke="blue" stroke-width="2"/>
<line x1="318" y1="204" x2="318" y2="152" stroke="blue" stroke-width="2"/>
<line x1="236" y1="71" x2="295" y2="71" stroke="blue" stroke-width="2"/>
<line x1="157" y1="70" x2="225" y2="138" stroke="blue" stroke-width="2"/>
<line x1="173" y1="153" x2="222" y2="237" stroke="blue" stroke-width="2"/>
<line x1="167" y1="54" x2="195" y2="131" stroke="blue" stroke-width="2"/>
<line x1="137" y1="85" x2="157" y2="162" stroke="blue" stroke-width="2"/>
<line x1="166" y1="53" x2="193" y2="132" stroke="blue" stroke-width="2"/>
<line x1="155" y1="335" x2="172" y2="282" stroke="blue" stroke-width="2"/>
<line x1="268" y1="132" x2="269" y2="77" stroke="blue" stroke-width="2"/>
<line x1="157" y1="71" x2="256" y2="177" stroke="blue" stroke-width="2"/>
<line x1="260" y1="240" x2="266" y2="292" stroke="blue" stroke-width="2"/>
<line x1="204" y1="130" x2="218" y2="71" stroke="blue" stroke-width="2"/>
<line x1="222" y1="249" x2="234" y2="328" stroke="blue" stroke-width="2"/>
<line x1="205" y1="282" x2="260" y2="328" stroke="blue" stroke-width="2"/>
<line x1="155" y1="372" x2="220" y2="372" stroke="blue" stroke-width="2"/>
<line x1="201" y1="323" x2="216" y2="373" stroke="blue" stroke-width="2"/>
<line x1="292" y1="88" x2="296" y2="142" stroke="blue" stroke-width="2"/>
<line x1="258" y1="123" x2="286" y2="72" stroke="blue" stroke-width="2"/>
<line x1="349" y1="411" x2="349" y2="328" stroke="blue" stroke-width="2"/>
<line x1="287" y1="68" x2="293" y2="141" stroke="blue" stroke-width="2"/>
<line x1="172" y1="194" x2="190" y2="324" stroke="blue" stroke-width="2"/>
<line x1="270" y1="251" x2="283" y2="302" stroke="blue" stroke-width="2"/>
<line x1="164" y1="146" x2="192" y2="197" stroke="blue" stroke-width="2"/>
<line x1="242" y1="293" x2="248" y2="239" stroke="blue" stroke-width="2"/>
<line x1="279" y1="342" x2="317" y2="405" stroke="blue" stroke-width="2"/>
<line x1="308" y1="273" x2="308" y2="181" stroke="blue" stroke-width="2"/>
<line x1="146" y1="205" x2="148" y2="270" stroke="blue" stroke-width="2"/>
<line x1="236" y1="232" x2="277" y2="306" stroke="blue" stroke-width="2"/>
<line x1="162" y1="70" x2="185" y2="129" stroke="blue" stroke-width="2"/>
<line x1="284" y1="343" x2="324" y2="406" stroke="blue" stroke-width="2"/>
<line x1="139" y1="104" x2="154" y2="162" stroke="blue" stroke-width="2"/>
<line x1="199" y1="70" x2="205" y2="121" stroke="blue" stroke-width="2"/>
<line x1="184" y1="195" x2="190" y2="264" stroke="blue" stroke-width="2"/>
<line x1="302" y1="214" x2="305" y2="267" stroke="blue" stroke-width="2"/>
<line x1="237" y1="116" x2="240" y2="58" stroke="blue" stroke-width="2"/>
<line x1="177" y1="263" x2="192" y2="199" stroke="blue" stroke-width="2"/>
<line x1="251" y1="266" x2="301" y2="353" stroke="blue" stroke-width="2"/>
<line x1="181" y1="183" x2="187" y2="269" stroke="blue" stroke-width="2"/>
<line x1="226" y1="113" x2="243" y2="56" stroke="blue" stroke-width="2"/>
<line x1="180" y1="73" x2="192" y2="132" stroke="blue" stroke-width="2"/>
<line x1="307" y1="343" x2="310" y2="277" stroke="blue" stroke-width="2"/>
<line x1="247" y1="205" x2="307" y2="101" stroke="blue" stroke-width="2"/>
<line x1="161" y1="76" x2="193" y2="129" stroke="blue" stroke-width="2"/>
<line x1="223" y1="395" x2="300" y2="396" stroke="blue" stroke-width="2"/>
<line x1="158" y1="157" x2="162" y2="71" stroke="blue" stroke-width="2"/>
<line x1="211" y1="217" x2="287" y2="262" stroke="blue" stroke-width="2"/>
<line x1="300" y1="219" x2="305" y2="297" stroke="blue" stroke-width="2"/>
<line x1="307" y1="316" x2="310" y2="252" stroke="blue" stroke-width="2"/>
<line x1="175" y1="314" x2="192" y2="239" stroke="blue" stroke-width="2"/>
<line x1="157" y1="72" x2="177" y2="134" stroke="blue" stroke-width="2"/>
<line x1="260" y1="252" x2="311" y2="334" stroke="blue" stroke-width="2"/>
<line x1="202" y1="76" x2="209" y2="140" stroke="blue" stroke-width="2"/>
<line x1="273" y1="253" x2="290" y2="308" stroke="blue" stroke-width="2"/>
<line x1="170" y1="257" x2="176" y2="204" stroke="blue" stroke-width="2"/>
</svg>